<svg width="311" height="66" viewBox="0 0 311 66" fill="none" xmlns="http://www.w3.org/2000/svg">
<path fill-rule="evenodd" clip-rule="evenodd" d="M7 0C3.13401 0 0 3.13401 0 7V59C0 62.866 3.13401 66 7 66H59C62.866 66 66 62.866 66 59V7C66 3.13401 62.866 0 59 0H7ZM50.987 29.9219H32.5007V38.8574H40.1472V45.5664C38.7019 45.8984 37.1199 46.0645 35.4011 46.0645C32.2566 46.0645 29.8445 45.0195 28.1648 42.9297C26.5046 40.8203 25.6745 37.7637 25.6745 33.7598C25.6745 29.6777 26.5925 26.543 28.4285 24.3555C30.2839 22.1484 32.9011 21.0449 36.28 21.0449C39.9714 21.0449 43.3601 21.8066 46.446 23.3301L50.1081 14.248C48.3308 13.4668 46.241 12.8223 43.8386 12.3145C41.4558 11.8066 38.9167 11.5527 36.2214 11.5527C29.112 11.5527 23.5847 13.4766 19.6394 17.3242C15.6941 21.1719 13.7214 26.5527 13.7214 33.4668C13.7214 40.5566 15.5183 46.0156 19.112 49.8438C22.7253 53.6719 27.8328 55.5859 34.4343 55.5859C40.4499 55.5859 45.9675 54.7266 50.987 53.0078V29.9219Z" fill="#27449F"/>
<path d="M90.2977 51H73.3445V22.4453H90.2977V28.6367H81.0594V33.1289H89.6141V39.3203H81.0594V44.7109H90.2977V51ZM111.095 51H103.38V28.7539H96.4078V22.4453H118.048V28.7539H111.095V51ZM158.12 51L156.187 49.0078C155.015 49.75 154.051 50.2643 153.296 50.5508C152.554 50.8242 151.714 51.0326 150.777 51.1758C149.852 51.319 148.791 51.3906 147.593 51.3906C145.536 51.3906 143.713 51.0391 142.124 50.3359C140.549 49.6328 139.338 48.6497 138.491 47.3867C137.658 46.1237 137.241 44.6849 137.241 43.0703C137.241 39.6589 139.012 37.0482 142.554 35.2383C141.747 34.3268 141.115 33.3633 140.659 32.3477C140.217 31.319 139.995 30.1602 139.995 28.8711C139.995 26.7878 140.796 25.1341 142.398 23.9102C144.012 22.6862 146.226 22.0742 149.038 22.0742C151.786 22.0742 153.921 22.6862 155.445 23.9102C156.981 25.1211 157.749 26.7747 157.749 28.8711C157.749 30.3164 157.333 31.6576 156.499 32.8945C155.679 34.1185 154.377 35.2708 152.593 36.3516L156.48 40.043C157.456 38.5456 158.133 36.8529 158.511 34.9648H166.441C166.05 36.7617 165.432 38.5651 164.585 40.375C163.752 42.1719 162.808 43.7148 161.753 45.0039L168.003 51H158.12ZM145.112 42.5234C145.112 43.3438 145.405 44.0143 145.991 44.5352C146.577 45.056 147.352 45.3164 148.316 45.3164C149.058 45.3164 149.709 45.2188 150.269 45.0234C150.829 44.8281 151.258 44.6068 151.558 44.3594L146.714 39.4375C145.646 40.2318 145.112 41.2604 145.112 42.5234ZM150.874 28.8711C150.874 28.2331 150.685 27.7773 150.308 27.5039C149.943 27.2174 149.481 27.0742 148.921 27.0742C148.374 27.0742 147.892 27.237 147.476 27.5625C147.072 27.888 146.87 28.4089 146.87 29.125C146.87 30.1016 147.443 31.1107 148.589 32.1523C149.331 31.7357 149.898 31.2409 150.288 30.668C150.679 30.082 150.874 29.4831 150.874 28.8711ZM211.903 36.1172C211.903 40.8828 210.588 44.5547 207.958 47.1328C205.341 49.7109 201.656 51 196.903 51H187.665V22.4453H197.548C202.131 22.4453 205.666 23.6172 208.153 25.9609C210.653 28.3047 211.903 31.6901 211.903 36.1172ZM203.895 36.3906C203.895 33.7734 203.374 31.8333 202.333 30.5703C201.304 29.3073 199.735 28.6758 197.626 28.6758H195.38V44.6719H197.098C199.442 44.6719 201.161 43.9948 202.255 42.6406C203.348 41.2734 203.895 39.1901 203.895 36.3906ZM246.959 36.6836C246.959 41.4883 245.78 45.1406 243.423 47.6406C241.067 50.1406 237.616 51.3906 233.072 51.3906C228.593 51.3906 225.155 50.1341 222.759 47.6211C220.377 45.1081 219.185 41.4492 219.185 36.6445C219.185 31.8919 220.37 28.2656 222.74 25.7656C225.123 23.2526 228.58 21.9961 233.111 21.9961C237.655 21.9961 241.099 23.2396 243.443 25.7266C245.787 28.2135 246.959 31.8659 246.959 36.6836ZM227.31 36.6836C227.31 42.2044 229.231 44.9648 233.072 44.9648C235.025 44.9648 236.47 44.2943 237.408 42.9531C238.358 41.612 238.834 39.5221 238.834 36.6836C238.834 33.832 238.352 31.7292 237.388 30.375C236.438 29.0078 235.012 28.3242 233.111 28.3242C229.244 28.3242 227.31 31.1107 227.31 36.6836ZM282.502 51H272.385L261.955 30.8828H261.78C262.027 34.0469 262.151 36.4622 262.151 38.1289V51H255.315V22.4453H265.393L275.784 42.2891H275.901C275.718 39.4115 275.627 37.1003 275.627 35.3555V22.4453H282.502V51ZM308.827 51H291.874V22.4453H308.827V28.6367H299.589V33.1289H308.144V39.3203H299.589V44.7109H308.827V51Z" fill="black"/>
</svg>
