<svg width="44" height="44" viewBox="0 0 44 44" fill="none" xmlns="http://www.w3.org/2000/svg">
<path fill-rule="evenodd" clip-rule="evenodd" d="M7 0C3.13401 0 0 3.13401 0 7V37C0 40.866 3.13401 44 7 44H37C40.866 44 44 40.866 44 37V7C44 3.13401 40.866 0 37 0H7ZM33.875 19.2812H21.5508V25.2383H26.6484V29.7109C25.6849 29.9323 24.6302 30.043 23.4844 30.043C21.388 30.043 19.7799 29.3464 18.6602 27.9531C17.5534 26.5469 17 24.5091 17 21.8398C17 19.1185 17.612 17.0286 18.8359 15.5703C20.0729 14.099 21.8177 13.3633 24.0703 13.3633C26.5312 13.3633 28.7904 13.8711 30.8477 14.8867L33.2891 8.83203C32.1042 8.3112 30.7109 7.88151 29.1094 7.54297C27.5208 7.20443 25.8281 7.03516 24.0312 7.03516C19.2917 7.03516 15.6068 8.31771 12.9766 10.8828C10.3464 13.4479 9.03125 17.0352 9.03125 21.6445C9.03125 26.3711 10.2292 30.0104 12.625 32.5625C15.0339 35.1146 18.4388 36.3906 22.8398 36.3906C26.8503 36.3906 30.5286 35.8177 33.875 34.6719V19.2812Z" fill="#27449F"/>
</svg>
