<svg width="309" height="66" viewBox="0 0 309 66" fill="none" xmlns="http://www.w3.org/2000/svg">
<path fill-rule="evenodd" clip-rule="evenodd" d="M0 7C0 3.13401 3.13401 0 7 0H59C62.866 0 66 3.13401 66 7V59C66 62.866 62.866 66 59 66H7C3.13401 66 0 62.866 0 59V7ZM32.5007 29.9219H50.987V53.0078C45.9675 54.7266 40.4499 55.5859 34.4343 55.5859C27.8328 55.5859 22.7253 53.6719 19.112 49.8438C15.5183 46.0156 13.7214 40.5566 13.7214 33.4668C13.7214 26.5527 15.6941 21.1719 19.6394 17.3242C23.5847 13.4766 29.112 11.5527 36.2214 11.5527C38.9167 11.5527 41.4558 11.8066 43.8386 12.3145C46.241 12.8223 48.3308 13.4668 50.1081 14.248L46.446 23.3301C43.3601 21.8066 39.9714 21.0449 36.28 21.0449C32.9011 21.0449 30.2839 22.1484 28.4285 24.3555C26.5925 26.543 25.6745 29.6777 25.6745 33.7598C25.6745 37.7637 26.5046 40.8203 28.1648 42.9297C29.8445 45.0195 32.2566 46.0645 35.4011 46.0645C37.1199 46.0645 38.7019 45.8984 40.1472 45.5664V38.8574H32.5007V29.9219ZM73.3445 51H90.2977V44.7109H81.0594V39.3203H89.6141V33.1289H81.0594V28.6367H90.2977V22.4453H73.3445V51ZM103.38 51H111.095V28.7539H118.048V22.4453H96.4078V28.7539H103.38V51ZM156.187 49.0078L158.12 51H168.003L161.753 45.0039C162.808 43.7148 163.752 42.1719 164.585 40.375C165.432 38.5651 166.05 36.7617 166.441 34.9648H158.511C158.133 36.8529 157.456 38.5456 156.48 40.043L152.593 36.3516C154.377 35.2708 155.679 34.1185 156.499 32.8945C157.333 31.6576 157.749 30.3164 157.749 28.8711C157.749 26.7747 156.981 25.1211 155.445 23.9102C153.921 22.6862 151.786 22.0742 149.038 22.0742C146.226 22.0742 144.012 22.6862 142.398 23.9102C140.796 25.1341 139.995 26.7878 139.995 28.8711C139.995 30.1602 140.217 31.319 140.659 32.3477C141.115 33.3633 141.747 34.3268 142.554 35.2383C139.012 37.0482 137.241 39.6589 137.241 43.0703C137.241 44.6849 137.658 46.1237 138.491 47.3867C139.338 48.6497 140.549 49.6328 142.124 50.3359C143.713 51.0391 145.536 51.3906 147.593 51.3906C148.791 51.3906 149.852 51.319 150.777 51.1758C151.714 51.0326 152.554 50.8242 153.296 50.5508C154.051 50.2643 155.015 49.75 156.187 49.0078ZM145.991 44.5352C145.405 44.0143 145.112 43.3438 145.112 42.5234C145.112 41.2604 145.646 40.2318 146.714 39.4375L151.558 44.3594C151.258 44.6068 150.829 44.8281 150.269 45.0234C149.709 45.2188 149.058 45.3164 148.316 45.3164C147.352 45.3164 146.577 45.056 145.991 44.5352ZM150.308 27.5039C150.685 27.7773 150.874 28.2331 150.874 28.8711C150.874 29.4831 150.679 30.082 150.288 30.668C149.898 31.2409 149.331 31.7357 148.589 32.1523C147.443 31.1107 146.87 30.1016 146.87 29.125C146.87 28.4089 147.072 27.888 147.476 27.5625C147.892 27.237 148.374 27.0742 148.921 27.0742C149.481 27.0742 149.943 27.2174 150.308 27.5039ZM207.958 47.1328C210.588 44.5547 211.903 40.8828 211.903 36.1172C211.903 31.6901 210.653 28.3047 208.153 25.9609C205.666 23.6172 202.131 22.4453 197.548 22.4453H187.665V51H196.903C201.656 51 205.341 49.7109 207.958 47.1328ZM202.333 30.5703C203.374 31.8333 203.895 33.7734 203.895 36.3906C203.895 39.1901 203.348 41.2734 202.255 42.6406C201.161 43.9948 199.442 44.6719 197.098 44.6719H195.38V28.6758H197.626C199.735 28.6758 201.304 29.3073 202.333 30.5703ZM243.423 47.6406C245.78 45.1406 246.959 41.4883 246.959 36.6836C246.959 31.8659 245.787 28.2135 243.443 25.7266C241.099 23.2396 237.655 21.9961 233.111 21.9961C228.58 21.9961 225.123 23.2526 222.74 25.7656C220.37 28.2656 219.185 31.8919 219.185 36.6445C219.185 41.4492 220.377 45.1081 222.759 47.6211C225.155 50.1341 228.593 51.3906 233.072 51.3906C237.616 51.3906 241.067 50.1406 243.423 47.6406ZM233.072 44.9648C229.231 44.9648 227.31 42.2044 227.31 36.6836C227.31 31.1107 229.244 28.3242 233.111 28.3242C235.012 28.3242 236.438 29.0078 237.388 30.375C238.352 31.7292 238.834 33.832 238.834 36.6836C238.834 39.5221 238.358 41.612 237.408 42.9531C236.47 44.2943 235.025 44.9648 233.072 44.9648ZM272.385 51H282.502V22.4453H275.627V35.3555C275.627 37.1003 275.718 39.4115 275.901 42.2891H275.784L265.393 22.4453H255.315V51H262.151V38.1289C262.151 36.4622 262.027 34.0469 261.78 30.8828H261.955L272.385 51ZM291.874 51H308.827V44.7109H299.589V39.3203H308.144V33.1289H299.589V28.6367H308.827V22.4453H291.874V51Z" fill="black"/>
</svg>
